<svg width="17" height="18" viewBox="0 0 17 18" fill="none" xmlns="http://www.w3.org/2000/svg">
<path fill-rule="evenodd" clip-rule="evenodd" d="M8.17004 0.5C12.6749 0.5 16.3392 4.08349 16.3392 8.48902C16.3392 10.5675 15.5236 12.4632 14.1888 13.886L16.8152 16.4491C17.061 16.6894 17.0619 17.0783 16.8161 17.3187C16.6936 17.4401 16.5317 17.5 16.3706 17.5C16.2104 17.5 16.0493 17.4401 15.926 17.3203L13.2679 14.7281C11.8696 15.8232 10.0967 16.4789 8.17004 16.4789C3.66515 16.4789 0 12.8945 0 8.48902C0 4.08349 3.66515 0.5 8.17004 0.5ZM8.17004 1.73059C4.35892 1.73059 1.25835 4.76196 1.25835 8.48902C1.25835 12.2161 4.35892 15.2483 8.17004 15.2483C11.9803 15.2483 15.0809 12.2161 15.0809 8.48902C15.0809 4.76196 11.9803 1.73059 8.17004 1.73059Z" fill="var(--text)"/>
</svg>
